<svg width="3000" height="1700" viewBox="0 0 3000 1700" fill="none" xmlns="http://www.w3.org/2000/svg">
<g clip-path="url(#clip0_1693_288699)">
<path d="M998.739 759C943.739 759 937.989 799.25 937.989 851.75C937.989 904.75 943.989 944.5 998.739 944.5C1053.49 944.5 1059.49 904.75 1059.49 851.75C1059.49 799.25 1053.49 759 998.739 759ZM973.989 851.75C973.989 807.25 976.489 785.5 998.739 785.5C1021.24 785.5 1023.49 807.25 1023.49 851.75C1023.49 897 1021.24 918 998.739 918C976.489 918 973.989 896.75 973.989 851.75ZM1123.66 762.5V941H1159.66V863.5H1219.66V834H1159.66V792H1223.41V762.5H1123.66ZM1282.38 762.5V941H1384.63V911.5H1318.38V863.5H1378.38V834H1318.38V792H1382.13V762.5H1282.38ZM1445.74 762.5V941H1481.74V865.5H1501.49C1514.49 865.5 1521.74 873 1522.24 887.75L1522.99 916.5C1523.24 929 1524.99 937.25 1527.74 941H1566.74V939.5C1558.24 935.25 1558.99 917 1558.74 907.5C1557.74 871 1555.74 856.5 1529.99 853V852.5C1548.99 848.5 1559.74 834 1559.74 808.5C1559.74 778 1541.74 762.5 1512.99 762.5H1445.74ZM1481.74 840.5V789H1499.49C1514.74 789 1523.74 796.75 1523.74 813.75C1523.74 832.25 1514.49 840.5 1497.49 840.5H1481.74ZM1613.76 762.5V792H1652.76V941H1688.76V792H1727.76V762.5H1613.76ZM1807.46 762.5L1760.21 941H1797.71L1805.96 903.25H1853.46L1861.71 941H1899.21L1851.96 762.5H1807.46ZM1829.96 793.5L1847.21 873.75H1812.21L1829.46 793.5H1829.96ZM2005.37 759C1970.12 759 1950.12 777.75 1950.12 811.5C1950.12 843 1967.37 854 1991.87 863.75L2013.62 872.5C2026.37 877.5 2028.87 885 2028.87 896C2028.87 909.75 2020.12 918 2007.37 918C1992.37 918 1983.62 912.25 1983.62 890V885.25H1947.62V890.75C1947.62 929.75 1967.12 944.5 2004.37 944.5C2044.87 944.5 2066.37 926.25 2066.37 889.75C2066.37 864.75 2055.87 852.75 2032.12 842.5L2004.62 830.5C1991.12 824.75 1986.12 819.25 1986.12 806.25C1986.12 793 1992.87 785.5 2006.62 785.5C2019.87 785.5 2026.12 794 2026.12 812H2060.62V807.75C2060.62 775.25 2040.62 759 2005.37 759Z" fill="#F4E623"/>
<path d="M1339.42 994.88C1333.38 994.88 1330.22 999.24 1330.22 1009.72C1330.22 1020.12 1333.3 1024.56 1339.42 1024.56C1345.58 1024.56 1348.62 1020.12 1348.62 1009.72C1348.62 999.2 1345.46 994.88 1339.42 994.88ZM1333.9 1009.76C1333.9 1005.16 1334.34 1002 1335.22 1000.32C1336.1 998.6 1337.5 997.76 1339.38 997.76C1341.34 997.76 1342.74 998.64 1343.62 1000.32C1344.5 1002.04 1344.94 1005.16 1344.94 1009.72C1344.94 1014.32 1344.5 1017.48 1343.62 1019.16C1342.74 1020.84 1341.34 1021.68 1339.42 1021.68C1337.5 1021.68 1336.1 1020.84 1335.22 1019.12C1334.34 1017.44 1333.9 1014.32 1333.9 1009.76ZM1353.88 995.44V1024H1357.4V1000.88H1357.48L1366.64 1024H1371.48V995.44H1367.96V1019.28H1367.88L1358.44 995.44H1353.88ZM1377.13 995.44V1024H1392.25V1020.88H1380.65V995.44H1377.13ZM1395.94 995.44V1024H1399.46V995.44H1395.94ZM1405.13 995.44V1024H1408.65V1000.88H1408.73L1417.89 1024H1422.73V995.44H1419.21V1019.28H1419.13L1409.69 995.44H1405.13ZM1428.39 995.44V1024H1443.63V1020.88H1431.91V1010.64H1442.51V1007.52H1431.91V998.56H1443.15V995.44H1428.39ZM1454.69 995.44L1462.25 1012.8V1024H1465.77V1012.8L1473.33 995.44H1469.65L1464.01 1008.8L1458.57 995.44H1454.69ZM1487.23 995.44V1024H1502.47V1020.88H1490.75V1010.64H1501.35V1007.52H1490.75V998.56H1501.99V995.44H1487.23ZM1506.78 995.44V1024H1510.3V1000.88H1510.38L1519.54 1024H1524.38V995.44H1520.86V1019.28H1520.78L1511.34 995.44H1506.78ZM1537.19 995.44V998.56H1544.35V1024H1547.87V998.56H1555.07V995.44H1537.19ZM1558.74 995.44V1024H1562.26V995.44H1558.74ZM1567.93 995.44V1024H1583.17V1020.88H1571.45V1010.64H1582.05V1007.52H1571.45V998.56H1582.69V995.44H1567.93ZM1587.48 995.44V1024H1591V1000.88H1591.08L1600.24 1024H1605.08V995.44H1601.56V1019.28H1601.48L1592.04 995.44H1587.48ZM1611.09 995.44V1024H1619.21C1625.29 1024 1628.73 1019.56 1628.73 1009.68C1628.73 1003.56 1627.81 1000.24 1626.17 998.32C1624.53 996.4 1622.13 995.44 1618.93 995.44H1611.09ZM1614.61 1021.12V998.32H1618.25C1620.49 998.32 1622.17 999.04 1623.33 1000.6C1624.45 1002.08 1625.05 1004.64 1625.05 1009.72C1625.05 1014.12 1624.41 1016.92 1623.29 1018.6C1622.13 1020.28 1620.57 1021.12 1618.25 1021.12H1614.61ZM1639.59 995.44L1631.35 1024H1635.03L1637.15 1016.16H1646.27L1648.31 1024H1651.99L1644.31 995.44H1639.59ZM1641.91 999.48L1645.55 1013.28H1637.87L1641.83 999.48H1641.91ZM1662.66 994.88C1657.14 994.88 1654.3 998.12 1654.3 1002.8C1654.3 1006.44 1655.78 1008.88 1660.78 1010.52C1665.06 1011.92 1667.78 1012.92 1667.78 1016.64C1667.78 1019.52 1665.74 1021.68 1662.78 1021.68C1658.62 1021.68 1657.46 1019.48 1657.46 1015.44V1015.04H1653.94V1015.2C1653.94 1021.92 1656.54 1024.56 1662.58 1024.56C1667.9 1024.56 1671.46 1021.6 1671.46 1016.08C1671.46 1012.16 1669.78 1009.88 1664.66 1008.32C1660.5 1007.04 1657.98 1006 1657.98 1002.4C1657.98 999.52 1659.58 997.76 1662.7 997.76C1665.66 997.76 1667.14 999.44 1667.14 1002.68V1002.84H1670.66C1670.5 997.36 1667.98 994.88 1662.66 994.88Z" fill="white"/>
</g>
<defs>
<clipPath id="clip0_1693_288699">
<rect width="3000" height="1700" fill="white"/>
</clipPath>
</defs>
</svg>
